<svg xmlns="http://www.w3.org/2000/svg" version="1.1" xmlns:xlink="http://www.w3.org/1999/xlink" xmlns:svgjs="http://svgjs.dev/svgjs" width="2000" height="1611" viewBox="0 0 2000 1611"><g transform="matrix(1,0,0,1,0,-1.700067323684948)"><svg viewBox="0 0 448 361" data-background-color="#ffffff" preserveAspectRatio="xMidYMid meet" height="1611" width="2000" xmlns="http://www.w3.org/2000/svg" xmlns:xlink="http://www.w3.org/1999/xlink"><g id="tight-bounds" transform="matrix(1,0,0,1,0,0.3809585995346083)"><svg viewBox="0 0 448 360" height="360" width="448"><g><svg></svg></g><g><svg viewBox="0 0 448 360" height="360" width="448"><g><path transform="translate(36.9151,-7.08178) scale(0.00624,0.00624)" d="M25167 8301c221 0 400 179 400 400 0 221-179 400-400 400h-3824l-2753 2753c-156 156-409 156-566 0-156-156-156-409 0-566l2188-2188h-6475c-1847 0-3071 431-3819 1301-760 885-1068 2254-1068 4110 0 11 0 22-1 33l34 5884 2356-2356c156-156 409-156 566 0 156 156 156 409 0 566l-2915 2915c33 5746 31 11443-2 17189 4087 4041 8117 8068 12157 12154h4070c221 0 400 179 400 400 0 221-179 400-400 400h-3279l4160 4208 1-1c1313 1313 2498 2062 3660 2151 1146 87 2316-474 3622-1779l4579-4579h-3323c-221 0-400-179-400-400 0-221 179-400 400-400h4123l2666-2666c156-156 409-156 566 0 156 156 156 409 0 566l-2101 2101h6475c1847 0 3071-431 3819-1301 760-885 1068-2254 1068-4110h2l-34-5917-2568 2568c-156 156-409 156-566 0-156-156-156-409 0-566l3127-3127c-33-5746-31-11443 2-17189-4087-4041-8117-8068-12157-12154h-4193c-221 0-400-179-400-400 0-221 179-400 400-400h3402l-4141-4189c-7-6-13-12-20-18-1313-1313-2498-2062-3660-2151-1146-87-2316 474-3622 1779l-4579 4579h3024zM13737 8301h7275l5144-5144c1483-1483 2856-2116 4247-2010 1374 104 2719 934 4167 2382 8 8 15 15 22 23l4695 4749h6977c2096 0 3515 524 4425 1583 898 1045 1261 2582 1261 4629 0 13-1 25-2 37l-36 6373 4559 4508 1-1c1448 1448 2278 2792 2382 4167 106 1391-528 2764-2010 4247l-4934 4934 38 6710h2c0 2047-364 3584-1261 4629-910 1059-2329 1583-4425 1583h-7275l-5144 5144c-1483 1483-2856 2116-4247 2010-1374-104-2719-934-4167-2382l1-1-4718-4772h-6977c-2096 0-3515-524-4425-1583-898-1045-1261-2582-1261-4629h2l37-6410-4537-4485c-8-7-16-14-23-22-1448-1448-2278-2792-2382-4167-106-1391 528-2764 2010-4247l4934-4934-38-6672c-1-12-2-25-2-37 0-2047 364-3584 1261-4629 910-1059 2329-1583 4425-1583zM8141 30000l-44-7653-4374 4374c-1305 1305-1866 2476-1779 3622 88 1162 838 2348 2151 3660 6 6 13 13 18 20l3983 3937 45-7961zM8882 39860l-32 5627h2c0 1857 308 3226 1068 4110 748 871 1972 1301 3819 1301h6186l-5380-5442-5662-5597zM46264 9101h-6186l5380 5442 5662 5597 32-5594c-1-11-1-22-1-33 0-1857-308-3226-1068-4110-748-871-1972-1301-3819-1301zM51906 22039l-45 7961 44 7653 4374-4374c1305-1305 1866-2476 1779-3622-88-1163-838-2348-2151-3660l1-1-4002-3956z" fill="#233565" fill-rule="nonzero" stroke="none" stroke-width="1" stroke-linecap="butt" stroke-linejoin="miter" stroke-miterlimit="10" stroke-dasharray="" stroke-dashoffset="0" font-family="none" font-weight="none" font-size="none" text-anchor="none" style="mix-blend-mode: normal" data-fill-palette-color="tertiary"></path></g><g transform="matrix(1,0,0,1,112,129.962936952264)"><svg viewBox="0 0 224 100.07412609547202" height="100.07412609547202" width="224"><g><svg viewBox="0 0 404.9158516891955 180.89999999999998" height="100.07412609547202" width="224"><g><rect width="16.232585760000003" height="180.89999999999998" x="158.49125099149742" y="0" fill="#233565" opacity="1" stroke-width="0" stroke="transparent" fill-opacity="1" class="rect-yte-0" data-fill-palette-color="primary" rx="1%" id="yte-0" data-palette-color="#233565"></rect></g><g transform="matrix(1,0,0,1,217.21751675149744,0.44999999999998863)"><svg viewBox="0 0 187.6983349376981 180" height="180" width="187.6983349376981"><g id="textblocktransform"><svg viewBox="0 0 187.6983349376981 180" height="180" width="187.6983349376981" id="textblock"><g><svg viewBox="0 0 187.6983349376981 180" height="180" width="187.6983349376981"><g transform="matrix(1,0,0,1,0,0)"><svg width="187.6983349376981" viewBox="0.85 -39.75 53.233333333329995 51.050000000000004" height="180" data-palette-color="#233565"><path d="M39.95 11.3L39.95 11.3Q37.6 11.3 35.75 9.85L35.75 9.85Q33.9 8.45 32.3 5.88 30.7 3.3 29.18 0.28 27.65-2.75 26.13-5.6 24.6-8.45 22.95-10.5L22.95-10.5Q20.5-7.45 18.43-4.33 16.35-1.2 14.5 2.4L14.5 2.4Q13.65 3.95 12.8 5.18 11.95 6.4 11.2 6.4L11.2 6.4Q10.05 6.4 10.05 4.65L10.05 4.65Q10.05 4.3 10.1 3.88 10.15 3.45 10.25 2.95L10.25 2.95Q10.5 1.65 11.23-0.53 11.95-2.7 12.9-5.13 13.85-7.55 14.83-9.78 15.8-12 16.55-13.45L16.55-13.45 16.95-14.2Q15.55-14.3 14.05-13.93 12.55-13.55 11.1-12.6L11.1-12.6Q10.5-12.25 10.5-12.5L10.5-12.5Q10.5-13.1 11.75-13.75L11.75-13.75Q12.45-14.1 13.6-14.53 14.75-14.95 16.25-14.95L16.25-14.95Q16.5-14.95 16.78-14.95 17.05-14.95 17.3-14.9L17.3-14.9Q18.1-16.5 19.07-18.75 20.05-21 20.95-23.4 21.85-25.8 22.48-27.8 23.1-29.8 23.15-30.95L23.15-30.95Q21.85-27.6 20.15-25.1 18.45-22.6 16.4-20.35L16.4-20.35Q15.4-19.3 13.98-17.93 12.55-16.55 10.95-15.28 9.35-14 7.83-13.15 6.3-12.3 5.05-12.3L5.05-12.3Q2.95-12.3 1.98-13.15 1-14 0.85-15.2L0.85-15.2 0.85-15.45Q0.85-16.15 1.15-16.3L1.15-16.3Q1.15-16.3 1.25-16.3L1.25-16.3Q1.45-16.3 1.45-15.85L1.45-15.85Q1.45-15.35 1.65-14.75 1.85-14.15 2.6-14.15L2.6-14.15Q3.25-14.15 4.78-14.53 6.3-14.9 8.15-15.95L8.15-15.95Q10.5-17.25 13.65-19.98 16.8-22.7 20.6-27.6L20.6-27.6Q21.6-28.9 22.28-30.35 22.95-31.8 23.55-32.93 24.15-34.05 25-34.45L25-34.45Q25.4-34.6 25.65-34.6L25.65-34.6Q26.6-34.6 27.13-33.45 27.65-32.3 27.65-30.8L27.65-30.8Q27.65-30.45 27.65-30.13 27.65-29.8 27.55-29.45L27.55-29.45Q27.4-28.5 26.58-26.63 25.75-24.75 24.55-22.45 23.35-20.15 22.15-17.93 20.95-15.7 20.05-14.05L20.05-14.05Q21.5-13.2 22.7-12.15L22.7-12.15Q23.4-13.05 24.05-14L24.05-14Q24.7-14.9 25.4-15.8L25.4-15.8Q27.6-18.75 30.43-22.13 33.25-25.5 36.5-28.7L36.5-28.7Q39.7-31.85 43.2-34.5 46.7-37.15 50.25-38.65L50.25-38.65Q51-38.95 51.75-39.23 52.5-39.5 53.25-39.65L53.25-39.65Q53.4-39.7 53.53-39.73 53.65-39.75 53.7-39.75L53.7-39.75Q53.95-39.75 54.05-39.55L54.05-39.55Q54.15-39.2 53.95-39.25L53.95-39.25Q53.2-39.45 51.95-38.85 50.7-38.25 49.3-37.25 47.9-36.25 46.75-35.3L46.75-35.3Q45.65-34.4 44.28-33.15 42.9-31.9 41.75-30.83 40.6-29.75 40.1-29.25L40.1-29.25Q39.4-28.6 38.13-27.3 36.85-26 35.27-24.33 33.7-22.65 32.02-20.83 30.35-19 28.83-17.3 27.3-15.6 26.15-14.25L26.15-14.25Q25.45-13.45 24.83-12.73 24.2-12 23.65-11.25L23.65-11.25Q25.2-9.7 26.93-7.38 28.65-5.05 30.4-2.53 32.15 0 33.8 2.23 35.45 4.45 36.95 5.85L36.95 5.85Q38.4 7.1 39.8 8.22 41.2 9.35 42.4 9.35L42.4 9.35Q43.2 9.35 43.85 8.7L43.85 8.7Q44.5 8.05 44.8 7 45.1 5.95 45.25 4.8 45.4 3.65 45.65 2.7L45.65 2.7Q45.7 2.6 45.8 2.6L45.8 2.6Q45.85 2.6 45.85 3.1L45.85 3.1Q45.85 4.05 46 4.85 46.15 5.65 46.15 6.4L46.15 6.4Q46.15 7.05 45.93 7.73 45.7 8.4 45 9.1L45 9.1Q43.9 10.2 42.6 10.75 41.3 11.3 39.95 11.3ZM11.3 5.2L11.3 5.2Q11.45 5.2 11.75 4.7L11.75 4.7Q11.95 4.3 12.9 2.75 13.85 1.2 14.95-0.5L14.95-0.5Q16.35-2.7 18.2-5.53 20.05-8.35 22.2-11.35L22.2-11.35Q21.6-12 21-12.5 20.4-13 19.7-13.35L19.7-13.35 17.95-9.95Q17.7-9.45 17.13-8.28 16.55-7.1 15.88-5.73 15.2-4.35 14.63-3.13 14.05-1.9 13.75-1.3L13.75-1.3Q13.35-0.45 12.78 0.78 12.2 2 11.75 3.03 11.3 4.05 11.2 4.35L11.2 4.35Q11.15 4.45 11.15 4.58 11.15 4.7 11.15 4.8L11.15 4.8Q11.15 5.2 11.3 5.2Z" opacity="1" transform="matrix(1,0,0,1,0,0)" fill="#233565" class="wordmark-text-0" data-fill-palette-color="primary" id="text-0"></path></svg></g></svg></g></svg></g></svg></g><g transform="matrix(1,0,0,1,0,8.724442517887994)"><svg viewBox="0 0 115.99757099149743 163.451114964224" height="163.451114964224" width="115.99757099149743"><g><svg xmlns="http://www.w3.org/2000/svg" xmlns:xlink="http://www.w3.org/1999/xlink" version="1.1" x="0" y="0" viewBox="9.999994389595154 0.999987146223346 44.00001122080969 62.00001285377665" style="enable-background:new 0 0 64 64;" xml:space="preserve" height="163.451114964224" width="115.99757099149743" class="icon-icon-0" data-fill-palette-color="accent" id="icon-0"><path d="M49.456 44.083L40.884 41.94A2.674 2.674 0 0 0 38.323 40C38.214 40 38.107 40.018 38 40.031V38.208A11 11 0 0 0 42.949 30H43C45.206 30 47 28.206 47 26V14.472A8.19 8.19 0 0 0 42.639 7.204L42.204 6.682A15.75 15.75 0 0 0 30.072 1C28.604 1 27.144 1.205 25.734 1.608L25.533 1.665A34.7 34.7 0 0 1 16 3H14.719L15.155 4.745A10.3 10.3 0 0 0 18.667 10.26 12.86 12.86 0 0 0 17 16.605V26C17 28.206 18.794 30 21 30H21.051A11 11 0 0 0 26 38.208V40.031C25.893 40.018 25.786 40 25.677 40A2.67 2.67 0 0 0 23.116 41.94L14.544 44.083A5.99 5.99 0 0 0 10 49.904V63H54V49.904A5.99 5.99 0 0 0 49.456 44.083M37.936 56.969L36.323 61H35.153L36.783 49.59 37.328 49.808A2.68 2.68 0 0 0 41 47.323V44.031L42.787 44.478 40.21 52.21 36.735 53.368zM26.064 56.969L27.265 53.368 23.79 52.21 21.213 44.478 23 44.031V47.323A2.68 2.68 0 0 0 26.671 49.809L27.217 49.591 28.847 61H27.677zM29.128 48.826L31 48.077V61H30.867zM33 45C33 45.551 32.551 46 32 46S31 45.551 31 45 31.449 44 32 44 33 44.449 33 45M33 48.077L34.872 48.826 33.133 61H33zM39 42.677V47.323C39 47.783 38.5 48.126 38.072 47.951L34.558 46.546C34.833 46.093 35 45.567 35 45S34.833 43.907 34.558 43.454L38.073 42.048C38.497 41.877 39 42.218 39 42.677M26 24C26 23.449 26.449 23 27 23S28 23.449 28 24 27.551 25 27 25 26 24.551 26 24M27.19 36.593L28.721 32H35.28L36.811 36.593C35.417 37.479 33.77 38 32 38S28.583 37.479 27.19 36.593M37 25C36.449 25 36 24.551 36 24S36.449 23 37 23 38 23.449 38 24 37.551 25 37 25M43 28V24C44.103 24 45 24.897 45 26S44.103 28 43 28M19 26C19 24.897 19.897 24 21 24V28C19.897 28 19 27.103 19 26M21 17V22C20.268 22 19.591 22.212 19 22.556V16.605C19 14.444 19.633 12.352 20.832 10.554L21.387 9.722 20.555 9.167A8.3 8.3 0 0 1 17.309 4.976 36.7 36.7 0 0 0 26.082 3.587L26.283 3.53A13.8 13.8 0 0 1 30.072 3C34.177 3 38.039 4.809 40.667 7.962L41.366 8.8 41.553 8.894A6.2 6.2 0 0 1 45 14.472V22.556A3.96 3.96 0 0 0 43 22V17C43 14.243 40.757 12 38 12H26C23.243 12 21 14.243 21 17M36.234 14L34.434 17H29.567L27.767 14zM23 29V17A3 3 0 0 1 25.466 14.054L28.434 19H35.567L38.534 14.054A3 3 0 0 1 41 17V29A8.96 8.96 0 0 1 38.468 35.243L37.032 30.936 37.846 26.864A3 3 0 0 0 40 24C40 22.346 38.654 21 37 21S34 22.346 34 24C34 25.239 34.755 26.304 35.828 26.761L35.18 30H28.82L28.172 26.761A3 3 0 0 0 30 24C30 22.346 28.654 21 27 21S24 22.346 24 24C24 25.358 24.913 26.495 26.153 26.863L26.967 30.935 25.531 35.242A8.96 8.96 0 0 1 23 29M32 40C33.412 40 34.758 39.723 36 39.236V40.723L32.632 42.07C32.428 42.026 32.217 42 32 42S31.572 42.026 31.368 42.07L28 40.723V39.236C29.242 39.723 30.588 40 32 40M25 42.677C25 42.218 25.5 41.876 25.928 42.049L29.442 43.454C29.167 43.907 29 44.433 29 45S29.167 46.093 29.442 46.546L25.927 47.952C25.506 48.124 25 47.783 25 47.323zM12 49.904A3.994 3.994 0 0 1 15.03 46.024L19.267 44.965 22.209 53.791 24.734 54.633 23.935 57.032 25.523 61H19V52H17V61H12zM52 61H47V52H45V61H38.477L40.064 57.031 39.265 54.632 41.79 53.79 44.732 44.964 48.969 46.023A3.994 3.994 0 0 1 51.999 49.903z" fill="#8bd8bc" data-fill-palette-color="accent"></path></svg></g></svg></g></svg></g></svg></g></svg></g><defs></defs></svg><rect width="448" height="360" fill="none" stroke="none" visibility="hidden"></rect></g></svg></g></svg>